<svg width="256" height="256" viewBox="0 0 256 256" fill="none" xmlns="http://www.w3.org/2000/svg">
<path fill-rule="evenodd" clip-rule="evenodd" d="M37 0H73.5C74.8807 0 76 1.11929 76 2.5V2.5C76 3.88071 74.8807 5 73.5 5H37C19.3269 5 5 19.3269 5 37V72.5C5 73.8807 3.88071 75 2.5 75V75C1.11929 75 0 73.8807 0 72.5V37C0 16.5655 16.5655 0 37 0ZM2.5 180C1.11929 180 0 181.119 0 182.5V219C0 239.435 16.5655 256 37 256H73.5C74.8807 256 76 254.881 76 253.5V253.5C76 252.119 74.8807 251 73.5 251H37C19.3269 251 5 236.673 5 219V182.5C5 181.119 3.88071 180 2.5 180V180ZM253.5 180C252.119 180 251 181.119 251 182.5V219C251 236.673 236.673 251 219 251H183.5C182.119 251 181 252.119 181 253.5V253.5C181 254.881 182.119 256 183.5 256H219C239.435 256 256 239.435 256 219V182.5C256 181.119 254.881 180 253.5 180V180ZM253.5 75C254.881 75 256 73.8807 256 72.5V37C256 16.5655 239.435 0 219 0H183.5C182.119 0 181 1.11929 181 2.5V2.5C181 3.88071 182.119 5 183.5 5H219C236.673 5 251 19.3269 251 37V72.5C251 73.8807 252.119 75 253.5 75V75Z" fill="#82B1FF"/>
</svg>
